<svg width="89" height="89" viewBox="0 0 89 89" fill="none" xmlns="http://www.w3.org/2000/svg">
<rect width="89" height="89" fill="#031331"/>
<path d="M12.5952 45.0056V44.2641L14.4722 42.8223C14.4722 42.8223 14.4722 41.3805 14.4722 41.2156C14.4722 41.0509 14.4722 40.1446 14.4722 40.1446L14.1216 39.5472C14.1216 39.5472 17.4631 37.261 17.6281 37.1168C17.7931 36.952 20.3095 35.5102 20.3095 35.5102L22.269 34.8922C22.269 34.8922 24.5173 34.7892 24.8885 34.8922C25.2599 34.9952 28.4569 34.9952 28.4569 34.9952L29.4677 34.4185L32.9948 32.7089L36.9345 31.6378H39.8634L43.5555 32.3793H49.1453L53.8894 31.6378L55.5395 30.6904L57.3134 29.7841L55.5602 29.5781C55.5602 29.5781 55.9726 28.8572 56.0139 28.7954C56.0552 28.7336 57.1278 28.1569 57.1278 28.1569L58.386 27.4359H56.8184C56.8184 27.4359 57.829 26.612 57.9322 26.4473C58.0353 26.2825 58.6954 26.0147 58.6954 26.0147L59.9124 25.7675L61.7274 24.8613L62.8413 23.3164C62.8413 23.3164 64.0788 22.8839 64.2851 22.8839C64.4914 22.8839 64.9865 22.8839 65.1927 22.8839C65.3989 22.8839 66.5541 22.1012 66.5541 22.1012L67.5442 22.9251L69.6686 23.9962L71.9169 25.7469L72.6183 27.0858L75.5059 29.5987L76.2897 30.9581L75.7741 32.4411L75.1346 32.6471L74.0621 32.9149L73.1339 32.3793L70.37 31.7409L69.0911 30.9993L66.9665 30.8346L65.2752 31.8026L63.5013 36.4783L63.2332 39.1353L62.8 40.845L62.1606 41.916L67.6679 43.7904L71.6075 46.5711L74.7634 48.7544L74.8665 49.5989L76.2897 50.7111L76.661 51.947L74.3303 52.3177L72.9895 50.0108L71.6487 48.7337L67.8123 45.9119H65.9352L65.3989 47.9922L63.3157 50.5463H62.305L60.3248 51.6791V49.6812L60.8611 49.2075H62.14L63.2125 48.1982L63.852 47.2919V45.9119L61.3974 45.1704L57.9322 46.0354L55.8283 45.6441L53.5594 46.6328C53.5594 46.6328 46.1957 45.2322 46.0307 45.1291C45.8657 45.0262 43.5762 44.2847 43.5762 44.2847L42.5655 44.3877H41.9879L43.1843 47.0035L44.7725 49.2899L50.2798 52.0088L51.4143 52.6679L51.5792 53.1211L53.2912 53.8008L53.6419 54.3981L51.7648 55.1395L50.2591 54.2127C50.2591 54.2127 48.2996 53.1004 48.1552 53.0592C47.9903 52.9974 45.7006 51.5556 45.7006 51.5556C45.7006 51.5556 42.3592 50.9377 42.3592 50.7935C42.3592 50.6288 40.379 48.1364 40.2759 47.9511C40.1728 47.7656 38.337 45.3146 38.337 45.3146L37.2025 44.6554L36.0269 48.5484L33.5105 52.2765L33.6136 53.6566L35.5319 57.6525L37.1407 59.3621L36.6663 59.8976H34.418L33.4073 58.188V57.3435L30.6021 52.4825V51.4114L31.1385 50.4846L32.376 47.7451L32.5823 45.9943C32.5823 45.9943 29.9627 43.0694 29.7977 42.8429C29.6326 42.6369 28.7251 39.1148 28.7251 39.1148V36.9931C28.7251 36.9931 27.9825 36.9931 27.8175 36.9314C27.6525 36.8696 25.693 37.7759 25.693 37.7759C25.363 37.7759 25.363 37.7759 25.363 37.7759L23.0116 38.3526L21.3408 39.3207L19.6495 40.5566L17.8343 40.2888L16.4936 41.4629L15.1529 43.7697L13.8947 44.9232L12.5952 45.0056Z" fill="#F8F9FF"/>
<path d="M12.5952 59.8976H76.661M12.5952 45.0056V44.2641L14.4722 42.8223C14.4722 42.8223 14.4722 41.3805 14.4722 41.2156C14.4722 41.0509 14.4722 40.1446 14.4722 40.1446L14.1216 39.5472C14.1216 39.5472 17.4631 37.261 17.6281 37.1168C17.7931 36.952 20.3095 35.5102 20.3095 35.5102L22.269 34.8922C22.269 34.8922 24.5173 34.7892 24.8885 34.8922C25.2599 34.9952 28.4569 34.9952 28.4569 34.9952L29.4677 34.4185L32.9948 32.7089L36.9345 31.6378H39.8634L43.5555 32.3793H49.1453L53.8894 31.6378L55.5395 30.6904L57.3134 29.7841L55.5602 29.5781C55.5602 29.5781 55.9726 28.8572 56.0139 28.7954C56.0552 28.7336 57.1278 28.1569 57.1278 28.1569L58.386 27.4359H56.8184C56.8184 27.4359 57.829 26.612 57.9322 26.4473C58.0353 26.2825 58.6954 26.0147 58.6954 26.0147L59.9124 25.7675L61.7274 24.8613L62.8413 23.3164C62.8413 23.3164 64.0788 22.8839 64.2851 22.8839C64.4914 22.8839 64.9865 22.8839 65.1927 22.8839C65.3989 22.8839 66.5541 22.1012 66.5541 22.1012L67.5441 22.9251L69.6686 23.9962L71.9169 25.7469L72.6183 27.0858L75.5059 29.5987L76.2897 30.9581L75.7741 32.4411L75.1346 32.6471L74.0621 32.9149L73.1339 32.3793L70.37 31.7409L69.0911 30.9993L66.9665 30.8346L65.2752 31.8026L63.5013 36.4783L63.2332 39.1353L62.8001 40.845L62.1606 41.916L67.6679 43.7904L71.6075 46.5711L74.7634 48.7544L74.8665 49.5989L76.2897 50.7111L76.661 51.947L74.3303 52.3177L72.9895 50.0108L71.6487 48.7337L67.8123 45.9119H65.9352L65.3989 47.9922L63.3157 50.5463H62.305L60.3248 51.6791V49.6812L60.8611 49.2075H62.14L63.2125 48.1982L63.852 47.2919V45.9119L61.3974 45.1704L57.9322 46.0354L55.8283 45.6441L53.5594 46.6328C53.5594 46.6328 46.1957 45.2322 46.0307 45.1291C45.8657 45.0262 43.5762 44.2847 43.5762 44.2847L42.5655 44.3877H41.9879L43.1843 47.0035L44.7725 49.2899L50.2798 52.0088L51.4143 52.6679L51.5792 53.1211L53.2912 53.8008L53.6419 54.3981L51.7648 55.1395L50.2591 54.2127C50.2591 54.2127 48.2996 53.1004 48.1552 53.0592C47.9903 52.9974 45.7007 51.5556 45.7007 51.5556C45.7007 51.5556 42.3592 50.9377 42.3592 50.7935C42.3592 50.6288 40.379 48.1364 40.2759 47.9511C40.1728 47.7656 38.337 45.3146 38.337 45.3146L37.2025 44.6554L36.0268 48.5484L33.5105 52.2765L33.6136 53.6566L35.5319 57.6525L37.1407 59.3621L36.6663 59.8976H34.418L33.4073 58.188V57.3435L30.6021 52.4825V51.4114L31.1385 50.4846L32.376 47.7451L32.5823 45.9943C32.5823 45.9943 29.9627 43.0694 29.7977 42.8429C29.6326 42.6369 28.7251 39.1148 28.7251 39.1148V36.9931C28.7251 36.9931 27.9825 36.9931 27.8175 36.9314C27.6525 36.8696 25.693 37.7759 25.693 37.7759C25.363 37.7759 25.363 37.7759 25.363 37.7759L23.0116 38.3526L21.3408 39.3207L19.6495 40.5566L17.8343 40.2888L16.4936 41.4629L15.1529 43.7697L13.8947 44.9232L12.5952 45.0056Z" stroke="#F8F9FF" stroke-width="0.677945"/>
</svg>
